<svg xmlns="http://www.w3.org/2000/svg" viewBox="0 0 120 100"><title>home-onboard-theme</title><path fill="#fff" d="M105.1 84.16H4.73l-.22-82.2h100.38l.21 82.2"/><path d="M103 88.1H87.13l-3.13.03c-2 .08-4.23 0-6.35 0-4.28-.11-8.39 0-12.58.11l-12.55.22-6.36-.08h-3.18c-1.06 0-2.1 0-3.15.06l-6.29.12-6.34-.07c-4.23-.06-8.46-.18-12.66-.16H8.22l-6.31.14h-.83v-.86c0-3.55.35-7.1.1-10.65-.07-3.55 0-7.1 0-10.65.06-7.09.06-14.19.07-21.29 0-1.77.07-3.54.13-5.32s.11-3.55.13-5.32c-.06-3.55-.24-7.1-.1-10.65s.19-7.09.2-10.64L1.53 2.37V2h.4c8.37 0 16.75 0 25.12.09 4.19 0 8.37-.13 12.56-.21l12.56-.18 6.28-.07h6.28c4.19.05 8.38.2 12.56.07l12.56-.2c4.19-.06 8.38.19 12.57.05h.82v.85c0 3.57.13 7.16 0 10.72l-.16 5.34v5.36c.1 3.6-.23 7.08-.07 10.7s.09 7.18 0 10.7-.14 7.07-.06 10.69v5.38l-.09 5.3V71.95l.08 5.43zm-1.15-1.1V68.57l-.06-2.69-.14-5.37v-5.26-5.27s0-3.54-.1-5.33a92.61 92.61 0 0 1 0-10.54c.22-3.47-.23-7.1 0-10.57l.12-5.27-.13-5.3c-.15-3.53 0-7 0-10.57l.81.81c-4.19-.17-8.38 0-12.57 0L77.29 3c-4.18-.11-8.37.1-12.56.2l-3.14.08h-9.42c-4.18 0-8.37 0-12.56-.1L33.33 3c-2.09 0-4.19-.16-6.28-.09-8.37.09-16.75.32-25.12.29l.82-.83-.12 5.32c0 1.78-.1 3.55-.1 5.33 0 3.55.2 7.09.36 10.64 0 1.78.1 3.55 0 5.33s-.31 3.54-.32 5.32c0 3.55.41 7.1.38 10.64s-.09 7.1-.13 10.65v10.64c0 3.55 0 7.1-.1 10.65 0 .89-.12 1.77-.14 2.66s0 1.78 0 2.66c0 1.78.12 3.55.09 5.33l-.76-.77 6.25.17c2.09 0 4.18 0 6.26.07 4.18.06 8.35 0 12.51 0h12.52c2.09 0 4.17 0 6.23-.07l6.2-.11 12.57.17c4.18 0 8.42.15 12.51 0 2.04 0 4.04-.07 6.21 0l3.16.06h3.11z" fill="#0b1139"/><path fill="#0b1139" d="M2.75 2.55h99.22v9.47H2.75z"/><path d="M102.53 12.58H90.06c-4.24-.09-8.28.05-12.38.16-8.25.15-16.65.08-25 .05s-16.68-.07-25-.16l-6.25-.1h-6.22l-12.46-.06H2.3V12 2.07h.48l12.41.06c4.13.07 8.26-.23 12.4-.19l24.8-.18c4.14-.07 8.27.05 12.41.08s8.26 0 12.4 0 8.27 0 12.4.1l12.4-.08h.69v.69c.01 3.32-.04 6.72-.16 10.03zm-1.11-1.12c-.15-3-.27-6-.27-8.91l.82.82-12.4.06c-4.13.1-8.27.18-12.4.12l-24.81-.22-6.2-.09-6.16.07-12.4.12c-4.14.18-8.27-.34-12.4-.14l-12.45.25 1-1v4.74c0 1.57-.09 3.15-.06 4.73l-.89-.88c4.11 0 8.22-.05 12.32 0 2.06 0 4.12.07 6.17 0l6.13-.12 24.8.51c8.28.09 16.36-.18 24.61-.11 4.14.06 8.33.15 12.35 0z" fill="#0b1139"/><path fill="#ffc13f" d="M8.95 16.39h85.62v27.72H8.95z"/><path d="M95.12 15.83l.09 7c0 2.36.07 4.71.06 7.08s0 4.73 0 7.07l.19 7.08v.93H83.75L73.16 45c-7.13-.06-14.27 0-21.4-.15l-10.7-.12-5.36-.09h-5.35c-7.13 0-14.27-.18-21.4-.07h-.47v-.48-17.31l-.08-3.46c-.07-2.31-.12-4.62-.12-6.93v-.61H9l21.55-.13c3.59 0 7.2-.08 10.78 0s7.14.13 10.75.1h10.74c3.59 0 7.12.11 10.69.15zM94 17l-21.33.16c-3.58.06-7.18.18-10.7.17H51.4c-7.06 0-14.14 0-21.19-.14S16 17.23 9 17.26l.87-.87c0 2.31.07 4.62-.09 6.93s-.07 4.62 0 6.93l.13 6.93c0 2.31.15 4.62.09 6.93l-1-1 5.35.1h21.4l5.36-.11c1.78-.06 3.56 0 5.35 0l5.35.13c1.78.07 3.57 0 5.35 0s3.57.06 5.35.1l5.35.11c1.78 0 3.57.07 5.35 0 7.14 0 14.27-.21 21.41-.2l-.7.7.08-6.65c.06-2.28 0-4.54 0-6.78v-6.77z" fill="#ffc13f"/><path d="M77.42 16.39l-55.8 27.72H9V31.83c9.73-4.14 24.63-10.33 37-15.44z" fill="#fde0a2"/><path d="M78.2 16.21L74.66 18l-1.79.9-.89.45-.81.44c-1 .58-2.33 1.19-3.58 1.78s-2.27 1.19-3.41 1.79l-3.34 1.82c-1.11.61-2.2 1.24-3.44 1.83s-2.52 1.15-3.62 1.78-2.16 1.28-3.41 1.86c-2.39 1.2-4.93 2.28-7.25 3.48-2.48 1.08-4.4 2.68-7.09 3.54-2.23 1.31-4.67 2.42-7 3.57s-4.73 2.3-7.08 3.46l-.15.07h-.15c-1.05 0-2.11-.14-3.17-.22a16.7 16.7 0 0 0-3.16.08 23.94 23.94 0 0 1-3.17 0c-1.06-.08-2.11-.12-3.17-.18h-.34v-.29-3.07S8.54 39 8.55 38v-6.39l.22-.09c1.56-.61 3.13-1.19 4.65-1.88L18 27.45c1.52-.69 3-1.42 4.57-2.08s3.05-1.37 4.63-1.92a35.45 35.45 0 0 0 4.66-1.88l4.55-2.12c1.49-.76 3.16-1.09 4.65-1.88l2.29-1a18.94 18.94 0 0 1 2.35-.89l.23-.07H46c.67.07 1.34.13 2 .16h2c1.36-.08 2.68.07 4 .12.67 0 1.36-.06 2.07-.11a17 17 0 0 1 2 0c.67 0 1.31.09 2 .13l2 .07c1.29.07 2.73 0 4.08 0l3.89.16h4.17zm-1.56.36l-3.88.1h-3.74c-1.29 0-2.78.2-4 .23s-2.44 0-3.75 0-2.62.18-3.91.29a10.64 10.64 0 0 1-1.87 0 10.82 10.82 0 0 0-1.83-.17c-.63 0-1.29.11-1.93.14a11.91 11.91 0 0 1-1.89-.05 16.28 16.28 0 0 0-3.82 0l.32-.07a16.26 16.26 0 0 1-2.3 1l-2.35.87c-1.61.49-3 1.39-4.62 1.95a69.3 69.3 0 0 0-9.25 3.88c-1.48.79-3 1.38-4.58 2s-3.12 1.22-4.68 1.83-3.18 1.05-4.75 1.63-3 1.38-4.56 2.09l.41-.63c.08 2.05.14 4.09.15 6.14 0 1 0 2-.12 3.07a28.54 28.54 0 0 0-.1 3.07L9 43.5c1.06 0 2.11-.17 3.17-.29.53-.07 1.05-.08 1.58-.11a6.53 6.53 0 0 1 1.59.08c.52.08 1.05.21 1.58.25a10.39 10.39 0 0 0 1.58 0 22.88 22.88 0 0 1 3.17-.33l-.46.11c2.3-1.1 4.66-2.11 6.94-3.26s4.56-2.26 7-3.2c2-1.39 4.73-2.12 7-3.31S46.74 31.14 49 30l3.5-1.67c.6-.27 1.15-.56 1.69-.86l1.62-.87c1.07-.57 2.29-1.11 3.48-1.67l3.57-1.67c1.18-.55 2.44-1.12 3.52-1.68s2.11-1.11 3.37-1.68c.62-.29 1.22-.57 1.77-.85l1.67-.83z" fill="#fde0a2"/><path fill="#eaecf0" d="M8.95 51.1h25.53v25.53H8.95zM39.6 51.1h25.53v25.53H39.6zM70.25 51.1h25.53v25.53H70.25z"/><circle cx="46.82" cy="29.01" r="7.41" fill="#fff"/><path d="M55 29a5.62 5.62 0 0 1-.26 1.58 3 3 0 0 0-.2.77 1.6 1.6 0 0 1-.21.78 7.24 7.24 0 0 0-.48.65c-.13.23-.23.47-.35.71a9.45 9.45 0 0 1-.83 1.39 6.37 6.37 0 0 1-.57.59 3.42 3.42 0 0 1-.73.39 8.39 8.39 0 0 0-1.38.87 4.42 4.42 0 0 1-.78.25l-.82.08h-.81a6.94 6.94 0 0 0-.79 0c-.52-.07-1.08.13-1.62 0-.26-.07-.47-.32-.72-.4s-.57 0-.8-.14a8.81 8.81 0 0 1-2.58-1.86c-.17-.2-.36-.38-.53-.58a2.29 2.29 0 0 1-.35-.72 2.48 2.48 0 0 0-.29-.73c-.13-.22-.38-.39-.48-.63a2.88 2.88 0 0 1-.17-.76c0-.27 0-.53-.05-.78 0-.51-.14-1-.21-1.51a5.84 5.84 0 0 1 .66-3 8 8 0 0 0 .63-1.39c.11-.23.23-.46.36-.7l.46-.64a4.28 4.28 0 0 1 2.62-1.72c1-.29 2-.94 3.07-.87a5.8 5.8 0 0 0 1.61.16 2.7 2.7 0 0 1 .79.2c.25.12.45.35.69.46a2.62 2.62 0 0 0 .72.33 1.62 1.62 0 0 1 .65.45c.28.49 1 .45 1.29.93l.43.68a5.67 5.67 0 0 0 .42.66c.14.22.33.41.49.62a1.88 1.88 0 0 1 .3.73 4.58 4.58 0 0 0 .55 1.48 4.25 4.25 0 0 1 .2.78c.07.36.07.63.07.89zm-1.6 0v-.65a4.63 4.63 0 0 1 0-.65 4.77 4.77 0 0 0-.05-.66 1.48 1.48 0 0 0-.34-.58c-.36-.32-.38-.78-.59-1.17a2.92 2.92 0 0 0-1-.82 1.21 1.21 0 0 1-.24-.21 1.42 1.42 0 0 1-.13-.33.62.62 0 0 0-.51-.41c-.48 0-.64-.6-1.09-.7a3.85 3.85 0 0 0-.67 0 1.92 1.92 0 0 1-.62-.18 4.13 4.13 0 0 0-.62-.22 1.43 1.43 0 0 0-.65 0c-.84.09-1.81-.14-2.58.37a5.31 5.31 0 0 1-1 .86 4.82 4.82 0 0 1-.51.38 6.13 6.13 0 0 1-.51.38c-.34.28-.62.59-1 .86a1.58 1.58 0 0 0-.71 1.13c-.17.91-.18 1.76-.28 2.62 0 .22-.1.44-.14.67a1.67 1.67 0 0 0 .09.66 4.49 4.49 0 0 0 .4.57 1.26 1.26 0 0 1 .35.55c.07.19-.08.5 0 .73s.28.35.49.47c.51.17.64.56.9.9.14.16.28.33.43.48l.5.4a9.47 9.47 0 0 0 1.11.65c.22 0 .32.38.55.42s.46 0 .67 0a2.21 2.21 0 0 1 .63.24 5 5 0 0 0 .67.14 5.87 5.87 0 0 0 4.75-2.13c.64-.56 1.45-1.19 1.47-2.17a1.28 1.28 0 0 1 .13-.6 2.09 2.09 0 0 0 .13-.65v-.67z" fill="#fff"/><path d="M63.7 39.72c-1.19 0-2.37.08-3.6.07h-.92l-.86.09-1.74.12c-2.41.15-4.9 0-7.29 0h-.86v-.84c0-1.16 0-2.31.1-3.47s.1-2.31.19-3.46 0-2.31.05-3.47a33.28 33.28 0 0 0 0-3.46v-.47h.5c1.15 0 2.31.05 3.46.05s2.31-.25 3.47-.2l6.93-.19h.83v.84c0 1.2-.16 2.39-.12 3.59s0 2.43 0 3.61l-.12 1.75v1.81zm-1.11-1.11l-.13-3.38-.07-1.67-.17-1.71c-.06-1.1 0-2.16 0-3.25s0-2.19.07-3.29l.84.83a22.36 22.36 0 0 0-3.47-.1l-3.46.15a6.78 6.78 0 0 1-1.74-.08 5.29 5.29 0 0 0-1.71-.11c-1.15.08-2.31.28-3.46.26l1-1a21.06 21.06 0 0 0-.08 3.46v1.73a10.11 10.11 0 0 0 0 1.74 11.16 11.16 0 0 1-.07 3.46 12.56 12.56 0 0 0-.14 1.78l-.17 1.74-.57-.57a23.57 23.57 0 0 0 3.36 0c1.11 0 2.2-.13 3.3-.13l1.7.11a9.17 9.17 0 0 0 1.66 0c1.1 0 2.22.03 3.31.03z" fill="#0b1139"/><circle cx="7.08" cy="7.29" r="2.56" fill="#fff"/><path fill="#fff" d="M12.22 4.7h5.15v5.15h-5.15zM20.87 4.7v5.15h5.14L20.87 4.7M29.27 63.86a7 7 0 0 1-.61 2.88 18.69 18.69 0 0 1-1.49 2.58 7.19 7.19 0 0 1-5.46 2.16 6.76 6.76 0 0 1-2.87-.68 6.59 6.59 0 0 1-2.31-1.8A7.21 7.21 0 0 1 15 66.65a10.73 10.73 0 0 1-.52-2.79 7 7 0 0 1 .6-2.75 8.16 8.16 0 0 1 1.41-2.48 7.55 7.55 0 0 1 5.23-2.36 9.58 9.58 0 0 1 2.86.69A6.65 6.65 0 0 1 27 58.55 14.81 14.81 0 0 1 28.57 61a7.29 7.29 0 0 1 .7 2.86zm-1.57 0a5.89 5.89 0 0 0-1.07-3.28 6.33 6.33 0 0 0-.84-.8A8 8 0 0 0 24 58.46a5.2 5.2 0 0 0-2.24-.53 3.92 3.92 0 0 0-2.31.34 6 6 0 0 0-1.85 1.43 5.32 5.32 0 0 1-.8.85 1.72 1.72 0 0 0-.4.45c-.07.18-.15.36-.21.55a8.67 8.67 0 0 0-.2 2.31 3.5 3.5 0 0 0 .37 2.24l.24.52a5 5 0 0 1 .27.51l.31.49a2.65 2.65 0 0 0 .41.41c.7.38 1.22.9 1.89 1.35a3.26 3.26 0 0 0 .53.26c.19 0 .39.07.58.13.38.11.77.21 1.17.29a4 4 0 0 0 2.39-.44A7.06 7.06 0 0 0 26 68.15a3.84 3.84 0 0 0 1.35-2 6.63 6.63 0 0 0 .35-2.29zM60.88 63.86c-.66.69-1.28 1.39-2 2.07a12.51 12.51 0 0 0-1.8 2.16c-1.25 1.46-2.77 2.76-4.14 4.1a.84.84 0 0 1-1.19 0c-.64-.65-1.25-1.32-1.85-2s-1.22-1.36-1.81-2.06-1.29-1.28-1.89-2a22.09 22.09 0 0 0-1.91-2 .44.44 0 0 1 0-.62c.63-.66 1.32-1.26 2-1.9s1.11-1.47 1.79-2.08l3.73-4a.79.79 0 0 1 1.11 0c.66.71 1.23 1.46 1.94 2.12s1.4 1.34 2 2a16.17 16.17 0 0 0 1.9 2.1zm-1.58 0l-2-1.78-1-.87-1.07-.83a21.45 21.45 0 0 1-1.77-1.8c-.55-.63-1.18-1.22-1.76-1.86H53a14.84 14.84 0 0 0-2 1.85c-.62.67-1.19 1.39-1.82 2a4.24 4.24 0 0 1-1 .91 3.33 3.33 0 0 0-1 .92 25.12 25.12 0 0 1-1.74 2.12v-1.37a12.18 12.18 0 0 0 1.87 2c.32.33.65.64.95 1a6.29 6.29 0 0 0 1 1 6.62 6.62 0 0 1 1.88 2 8.81 8.81 0 0 0 .93 1c.3.34.57.72.85 1.09H52a12.2 12.2 0 0 0 1.89-1.84c.58-.64 1.12-1.29 1.72-1.9a14.49 14.49 0 0 0 1.93-1.78c.53-.67 1.13-1.26 1.76-1.86zM69.81 19.88h48.26v78.16H69.81z"/><path fill="#ffc13f" d="M74.22 35.87h39.88v27.72H74.22z"/><path d="M114.66 35.31l.08 7v3.56s.09 2.32.14 3.49.12 2.33.15 3.51v11.58h-.9l-10-.08-10-.19c-1.66 0-3.33-.11-5-.11h-5c-3.33 0-6.65-.14-10-.06h-.47v-.49-10.33l-.14-3.47c-.08-2.3-.07-4.61-.1-6.92l-.08-6.93v-.72h.75c3.36-.08 6.75-.09 10.11 0s6.74 0 10.11 0 6.64.22 10 .17zm-1.12 1.11l-9.89.15c-3.26 0-6.66.27-9.88.23L84 36.72c-3.27 0-6.53-.11-9.81-.16l.69-.69.12 6.93c0 2.31.1 4.62.07 6.92 0 1.16-.2 2.31-.19 3.47s0 2.31.09 3.46c.09 2.31.21 4.62.21 6.93l-1-1c1.66 0 3.32.15 5 .11s3.33-.05 5 0 3.32 0 5 .06 3.33-.12 5-.13c3.32 0 6.64.31 10 .25 3.32.13 6.65.31 10 .23l-.5.5-.13-6.81v-3.38c0-1.13.06-2.28.08-3.42s.08-2.3.07-3.42-.07-2.22-.06-3.36z" fill="#ffc13f"/><path fill="#fde0a2" stroke="#fde0a2" stroke-miterlimit="10" d="M107.66 35.87L74.22 63.58V50.26l19.04-14.39h14.4z"/><circle cx="89.22" cy="48.49" r="7.41" fill="#fff"/><path d="M97.42 48.49a7.76 7.76 0 0 1-.66 3.12 18.78 18.78 0 0 1-1.63 2.79 7.86 7.86 0 0 1-5.91 2.35A7.44 7.44 0 0 1 86.1 56a7.27 7.27 0 0 1-2.51-1.9 7.83 7.83 0 0 1-1.69-2.6 11.65 11.65 0 0 1-.56-3 7.51 7.51 0 0 1 .64-3 9 9 0 0 1 1.56-2.68 8.16 8.16 0 0 1 5.68-2.55 10.38 10.38 0 0 1 3.11.73A7.45 7.45 0 0 1 95 42.73l.48.63.44.67a13 13 0 0 1 .77 1.37 8.16 8.16 0 0 1 .73 3.09zm-1.58 0A6.78 6.78 0 0 0 95.3 46a6.45 6.45 0 0 0-.63-1.12 7.71 7.71 0 0 0-.92-.89 8.61 8.61 0 0 0-2-1.47 5.85 5.85 0 0 0-2.48-.57 4.5 4.5 0 0 0-2.56.38 6.92 6.92 0 0 0-2.06 1.57 7 7 0 0 1-.87 1 2 2 0 0 0-.43.5c-.09.2-.17.41-.25.61a9.74 9.74 0 0 0-.24 2.56 4.09 4.09 0 0 0 .36 2.43l.27.58c.1.19.22.36.31.56a3.36 3.36 0 0 0 .8 1c.75.44 1.34 1 2.09 1.48a4 4 0 0 0 .59.29l.64.15c.21 0 .42.12.64.17l.66.13a4.52 4.52 0 0 0 2.63-.49A7.63 7.63 0 0 0 94 53.23l.47-.46.43-.51c.12-.19.27-.36.37-.56s.15-.42.22-.63a7.36 7.36 0 0 0 .35-2.58z" fill="#fff"/><path d="M106.11 59.2c-1.2 0-2.38.07-3.6.06h-.93s-.57.06-.86.08l-1.74.2c-2.4.15-4.89 0-7.29 0h-.85v-.85c0-1.15 0-2.31.11-3.46s.1-2.31.18-3.47 0-2.31.05-3.46a30.9 30.9 0 0 0 0-3.47v-.46h3.96s2.31-.25 3.46-.2l6.93-.19h.84v.84c0 1.21-.17 2.39-.13 3.6s.06 2.43 0 3.61l-.13 1.75v1.8zM105 58.09l-.13-3.38-.08-1.71-.17-1.7c-.05-1.1 0-2.17 0-3.26s0-2.18.06-3.29l.84.84a22.24 22.24 0 0 0-3.46-.11l-3.47.15a6.7 6.7 0 0 1-1.73-.07 5 5 0 0 0-1.73-.07c-1.16.08-2.31.28-3.47.26l1-1a19.17 19.17 0 0 0-.08 3.47v1.73a12.49 12.49 0 0 0 0 1.73 11.22 11.22 0 0 1-.07 3.47 12.45 12.45 0 0 0-.06 1.73l-.17 1.73-.57-.57a21.1 21.1 0 0 0 3.37 0c1.11 0 2.19-.12 3.29-.12l1.71.1a8.26 8.26 0 0 0 1.65 0c1.06.04 2.17.06 3.27.07z" fill="#0b1139"/><path fill="#eaecf0" d="M114.1 92.83l-40.55 1V68.34h40.55v24.49"/><path d="M117.89 98.43h-6.12c-2 0-4.13-.07-6.11 0-1 0-2 .09-3 .07l-3.1-.08c-2.08-.09-4.06 0-6.08.06-4 .09-8.07.28-12.16.28l-6.13-.13-6.11.16h-1v-1c0-3.29.12-6.59.21-9.88v-4.94s0-3.3-.06-4.94-.15-3.3 0-4.94a25.49 25.49 0 0 0 0-4.94v-9.89s.05-6.58 0-9.88.27-6.58.27-9.88c0-1.64-.22-3.29-.14-4.94l.15-4.94c.15-3.29.07-6.59 0-9.88v-.37h.38c4-.06 8 0 12.07 0s8 .14 12.06 0 8-.23 12.07-.3l6-.07 6 .14h.64v3.1l.06 2.49.12 5c0 1.66.11 3.33.1 5s-.12 3.31-.1 5c0 3.32.19 6.7 0 10s0 6.66-.15 9.91l.08 2.36.11 2.54c.09 1.71 0 3.32 0 5-.14 3.25-.15 6.54-.07 9.92s-.21 6.47 0 9.92 0 6.71.01 10.05zm-1.13-1.13c0-3.27-.05-6.57 0-9.76s-.22-6.7-.16-9.91 0-6.5-.12-9.85c0-.84-.06-1.66-.08-2.48a19.35 19.35 0 0 1 0-2.42 25.29 25.29 0 0 0 .07-4.86 44.21 44.21 0 0 1 0-4.89 38.41 38.41 0 0 0 0-4.91 47.55 47.55 0 0 1-.08-4.91l.12-4.88c0-1.63-.06-3.28-.08-4.91s0-3.26.08-4.9l.08-4.9v-2.45-2.46l.68.68c-2 .11-4 .24-6 .27h-6c-4-.05-8-.07-12.07-.3-2-.05-4-.21-6-.12s-4 .14-6 .18c-4 .08-8 .18-12.07.1l.8-.8c0 1.65-.16 3.29-.19 4.94s0 3.29.13 4.94.25 3.29.27 4.94A17 17 0 0 1 70 36.1c-.07.83-.22 1.65-.24 2.47a32.64 32.64 0 0 0 .24 4.94 42.91 42.91 0 0 1 .09 4.94c-.09 3.3-.15 6.55-.09 9.88s0 6.59-.12 9.89a24.71 24.71 0 0 0 0 4.94c.09 1.64 0 3.29-.07 4.94-.26 6.59-.15 13.17-.14 19.76l-.53-.53h6l6-.19c4 0 8 .11 12 .16 2 0 4 .09 6 0l2.93-.08h3c2 .08 4 0 5.93 0z" fill="#0b1139"/><path d="M74.22 23.81c.32 0 .63.12 1-.08a5.09 5.09 0 0 1 1 .05 5.32 5.32 0 0 1 .95.14h.47A1.5 1.5 0 0 0 78 24h.48s.32-.12.47-.1l1-.1a3.38 3.38 0 0 0 1 0c.32.14.63 0 1 0v.78a3.85 3.85 0 0 0-1 .11c-.31 0-.63-.08-1-.08a1.62 1.62 0 0 0-1 0c-.15.09-.31-.17-.47-.07a1.72 1.72 0 0 1-.48.13 10.13 10.13 0 0 1-1.89-.21c-.32-.13-.64.05-1 .07s-.63.05-1 0zM74.22 26.43c.32 0 .63.12 1-.08a5.09 5.09 0 0 1 1 0 5.35 5.35 0 0 1 .95.15h.47a1.07 1.07 0 0 0 .47 0h.48s.32-.13.47-.1l1-.1a3.8 3.8 0 0 0 1 0c.32.14.63 0 1 0v.79a3.09 3.09 0 0 0-1 .11c-.31 0-.63-.08-1-.08a1.62 1.62 0 0 0-1 0c-.15.09-.31-.18-.47-.08a1.74 1.74 0 0 1-.48.14 10.15 10.15 0 0 1-1.89-.22c-.32-.12-.64.06-1 .07s-.63.05-1 0zM74.22 29.06c.32 0 .63.12 1-.08a5.09 5.09 0 0 1 1 .05 4.57 4.57 0 0 1 .95.15h.47a1.25 1.25 0 0 0 .47 0h.48s.32-.12.47-.1l1-.09a3.8 3.8 0 0 0 1 0 2 2 0 0 0 1 0v.79a3.09 3.09 0 0 0-1 .11c-.31 0-.63-.09-1-.09a1.71 1.71 0 0 0-1 0c-.15.08-.31-.18-.47-.08A1.72 1.72 0 0 1 78 30a10.13 10.13 0 0 1-1.89-.21c-.32-.12-.64.05-1 .07s-.63.05-1 0z" fill="#0b1139"/><path d="M93.59 75l-1.06 1.88-.53.93-.55.87c-.69 1.33-1.28 2.78-2 4S88 85 87.29 86.18s-1.46 2.4-2.27 3.57l-.65-1.15 2.49.12a23.22 23.22 0 0 0 2.5.1c1.66 0 3.32.16 5 .08s3.33.08 5 0c.41 0 .83-.13 1.25-.15h1.24l2.5-.07-.58 1.1c-.87-1.22-1.82-2.35-2.64-3.59l-1.2-1.93-1.28-1.81c-.42-.62-.86-1.19-1.25-1.88s-.81-1.36-1.24-2zm0-1.58l2.88 3.75c.48.64 1 1.21 1.49 1.79s1 1.29 1.47 2l1.4 2 1.41 2c.47.67.87 1.39 1.31 2.06s1 1.29 1.43 1.93a.75.75 0 0 1-.15 1 .7.7 0 0 1-.41.14h-.05l-2.5.12h-1.24s-.84-.14-1.25-.18c-1.66-.08-3.32.42-5 .25a13 13 0 0 0-2.49 0H89.4a8.69 8.69 0 0 0-1.25 0c-.42 0-.83.12-1.25.11a23.25 23.25 0 0 1-2.49-.22h-.13a.73.73 0 0 1-.65-.8.71.71 0 0 1 .13-.35c.44-.62.77-1.32 1.27-1.91s.92-1.19 1.33-1.82c.8-1.29 1.55-2.64 2.32-4s1.66-2.56 2.47-3.81l.59-1.06.61-1z" fill="#fff"/><path d="M89.38 31.3a7.41 7.41 0 0 0 4-5.18 2.36 2.36 0 0 0-.22-1.83 1 1 0 0 0-1.61-.18 1.37 1.37 0 0 0-.22.74 6.12 6.12 0 0 0 3.68 6 3.46 3.46 0 0 0 1.55.3 3.22 3.22 0 0 0 2.72-3c0-.39-.18-.94-.54-.81a.55.55 0 0 0-.27.34 2.31 2.31 0 0 0 1 2.54 5.75 5.75 0 0 0 2.77.83 25.09 25.09 0 0 0 7.29-.32" fill="none" stroke="#0b1139" stroke-miterlimit="10"/></svg>