<svg xmlns="http://www.w3.org/2000/svg" viewBox="0 0 120 100"><title>home-onboard-prod-complete</title><path d="M72.15 93.56a39.39 39.39 0 0 0-.1-5 16.91 16.91 0 0 0-.22-5 12.22 12.22 0 0 1-.1-2.49 8 8 0 0 0 0-2.49 34.51 34.51 0 0 1 .06-5v-.74h.71a14.14 14.14 0 0 0 2.6-.1 4 4 0 0 1 1.3 0 3.35 3.35 0 0 0 1.29.14 3.84 3.84 0 0 1 .65-.11H80.29l2.59.09h2.6a10.28 10.28 0 0 0 2.59.22 6.84 6.84 0 0 1 2.59 0 11.33 11.33 0 0 0 2.6.1c1.73-.13 3.46 0 5.19 0a18.67 18.67 0 0 0 2.59.05c.87-.06 1.73-.19 2.6-.24s1.73-.14 2.59-.15a17.36 17.36 0 0 1 2.6 0 22.55 22.55 0 0 0 5.19-.14h.77l.09.94c.09.91-.25 1.81-.15 2.72a8.56 8.56 0 0 1-.1 2.72 6.26 6.26 0 0 0-.18 1.36v1.36s-.18.91-.18 1.36.17.91.15 1.37c0 .9-.27 1.81-.29 2.71s.15 1.83 0 2.73a8.83 8.83 0 0 0-.14 1.36 10.41 10.41 0 0 0 .12 1.36c.06.91.06 1.82 0 2.73h-1.6c0-.9 0-1.81.13-2.72a10.29 10.29 0 0 0 .15-1.36 8.92 8.92 0 0 0-.12-1.36 24.76 24.76 0 0 1 .13-2.72c0-.91-.21-1.83-.19-2.73 0-.46.3-.9.31-1.36s-.13-.91-.11-1.36a10.37 10.37 0 0 1 .2-1.36 4.85 4.85 0 0 0 0-1.37 8.3 8.3 0 0 1 .12-2.72c.18-.9-.08-1.82 0-2.72l.81.84a18.05 18.05 0 0 0-5.19 0 15 15 0 0 1-2.59.1c-.87 0-1.73-.07-2.6-.11s-1.73-.24-2.59-.33a12.52 12.52 0 0 0-2.59.15c-.87 0-1.73.14-2.6.14a11.86 11.86 0 0 1-2.59-.14 6 6 0 0 0-2.6.11 3.72 3.72 0 0 1-2.59 0c-.87-.35-1.73.21-2.6.27s-1.73-.1-2.59-.13-1.73 0-2.6 0h-1.94a3.81 3.81 0 0 1-.65-.15 3.18 3.18 0 0 0-1.3.07 4 4 0 0 1-1.29 0 17.53 17.53 0 0 0-2.6-.21l.5-.51c0 1.66.16 3.31.13 5v1.25s.1.83.17 1.24a13.83 13.83 0 0 1 .09 2.49 19.69 19.69 0 0 0 .14 5 41.42 41.42 0 0 0 .24 5z" fill="#d5daea"/><path d="M47.33 22.71C53.15 16.29 65.61 12.16 89 9.11L51.55 9z" fill="#eaecf0"/><path d="M86 5.13c-1.39 0-2.78 0-4.15-.06a13.21 13.21 0 0 0-2.15.09 12.49 12.49 0 0 1-2-.09c-2.75-.14-5.76.35-8.53.33-.69 0-1.36-.09-2.05-.12a13.74 13.74 0 0 0-2.12 0 23.46 23.46 0 0 1-4.19 0c-1.38-.09-2.78-.17-4.18-.16-.7 0-1.41 0-2.11.06a9.86 9.86 0 0 1-2.1.09l.8-.61a9 9 0 0 0-.85 2.66A7.6 7.6 0 0 1 52 8.73l-.39 1.34c-.51 1.8-1.09 3.57-1.58 5.36a38.79 38.79 0 0 1-1.69 5.33 11.27 11.27 0 0 0-.69 2.7 16.83 16.83 0 0 1-.8 2.68l-.45-.59a35 35 0 0 0 5.79.09c1.93-.07 3.85 0 5.78 0a55.91 55.91 0 0 0 5.79 0c1.93-.15 3.86-.23 5.79-.31a44.75 44.75 0 0 1 5.79.06 41.5 41.5 0 0 0 5.79-.18c1.93-.21 3.86.18 5.78 0a20.05 20.05 0 0 1 2.9 0 16.54 16.54 0 0 0 2.89.21l-.61.82c-.73-1.68-.72-3.65-1.6-5.25a23.11 23.11 0 0 1-.64-2.7 22.72 22.72 0 0 0-.71-2.67 23.35 23.35 0 0 1-.79-2.62 19.18 19.18 0 0 0-.68-2.71c-.62-1.68-1.16-3.38-1.67-5.16zm1-1.28c.58 1.79 1.09 3.66 1.54 5.57a18.83 18.83 0 0 0 .93 2.58 18.73 18.73 0 0 1 .77 2.79 24.17 24.17 0 0 0 .88 2.69 17.49 17.49 0 0 1 .95 2.69c0 2.06 1.24 3.62 1.37 5.59l.08 1.05-.8-.09a14 14 0 0 0-2.89.13 18.73 18.73 0 0 1-2.9-.06c-1.92-.24-3.85.15-5.78 0a36.11 36.11 0 0 0-5.79-.06 37.39 37.39 0 0 1-5.79.23c-3.86 0-7.72-.82-11.58-.25-1.93.09-3.85.18-5.78.1-1-.06-1.93-.22-2.9-.2a17.66 17.66 0 0 0-2.89.27l-1 .14.18-1.24a8.45 8.45 0 0 1 .69-2.71 12.41 12.41 0 0 0 .62-1.27 5.79 5.79 0 0 0 .31-1.37 13.57 13.57 0 0 1 .45-2.77L48.5 15c.57-1.77 1-3.58 1.58-5.36l.39-1.34a8.28 8.28 0 0 1 .46-1.3 8.4 8.4 0 0 0 .73-2.69l.12-.59h.62c2.88.15 5.72.35 8.6.26s5.69.18 8.68-.16c2.92-.07 5.62.32 8.57.16a16.87 16.87 0 0 1 2.22-.1A14.86 14.86 0 0 0 82.6 4c1.48-.11 2.94-.13 4.4-.15z" fill="#d5daea"/><path d="M91.92 59.74l.08-4.21v-2.11a18.57 18.57 0 0 0 0-2.11 23.8 23.8 0 0 1 .07-4.22c.09-1.4 0-2.81 0-4.21-.08-2.81-.26-5.62-.26-8.44 0-1.4.18-2.81.16-4.21s0-2.81-.17-4.22l1 1-5.82-.2c-1.94-.08-3.88 0-5.82-.07a33.39 33.39 0 0 1-5.83 0 11.75 11.75 0 0 0-1.45-.08c-.49 0-1 .1-1.46.12h-2.91l-5.83-.08h-5.82s-3.88-.33-5.82-.26c-1 0-1.94.17-2.91.16s-1.95-.06-2.92-.13l.44-.44c-.35 4 .09 8 0 12 0 2 0 4-.05 6v3s.07 2 .11 3c.22 4 .31 8 .36 12 .05 2-.2 4-.18 6l.21 6-.8-.79c1 0 1.94-.1 2.92-.1s1.94.09 2.91.12c1.94 0 3.88-.13 5.82-.1 1 0 1.94.17 2.91.21s1.94 0 2.91 0c1.95-.15 3.89.31 5.83 0a51.38 51.38 0 0 1 5.82.09c1.94.09 3.88 0 5.83-.08a56.5 56.5 0 0 0 5.82 0c1.94-.14 3.88-.17 5.82-.2l-.8.8V73h1.6v1.89h-.8c-1.94 0-3.88 0-5.82-.11-1 0-1.94-.08-2.91 0s-1.94.17-2.91.19c-2 0-3.89-.19-5.83-.07a32.34 32.34 0 0 1-5.82.11c-1.94-.41-3.88.19-5.83-.06a23.6 23.6 0 0 0-2.91-.11c-1 0-1.94.16-2.91.18-1.94 0-3.88-.11-5.82-.18l-2.91.1c-1 0-1.95 0-2.92-.06h-.78v-.75c.06-2 .16-4 .14-6s-.35-4-.32-6 0-4 0-6 .07-4 .27-6a34.47 34.47 0 0 0 0-6c-.11-2-.16-4-.2-6-.29-4 .59-8 0-12l-.11-.73.93-.09 1.46-.14 1.36-.17a20.58 20.58 0 0 1 2.91.33c1.94.16 3.88-.44 5.82-.36s3.88.14 5.82.15l5.83.05c1 0 1.94 0 2.91.06.49 0 1 .16 1.46.16a14 14 0 0 0 1.45 0 37.86 37.86 0 0 1 5.83.1c3.88.1 7.76.07 11.64 0h.57v.53c-.08 1.41 0 2.81-.05 4.22s.15 2.81.21 4.21c0 2.82-.09 5.63-.13 8.44 0 1.4-.11 2.81 0 4.21l.13 2.11v2.11c-.08 1.41 0 2.81.07 4.22l.08 4.21z" fill="#d5daea"/><path fill="#f4f5f7" d="M90.31 9.88H49.38l2.71-5.39H87.6l2.71 5.39"/><path d="M91 10.3h-3.98c-.44 0-.79.07-1.2.09-.85 0-1.91-.13-2.72-.08s-1.65.09-2.45.16-1.64.13-2.49.17-1.85-.12-2.71-.1-1.61.2-2.51.17-1.8-.07-2.7-.11a27 27 0 0 0-5.19.1c-.84.11-1.87-.35-2.66-.11a4.94 4.94 0 0 1-1.28.06h-1.32c-1.75 0-3.49-.1-5.22-.06a11.45 11.45 0 0 1-1.3-.07c-.44-.05-.88-.15-1.31-.18-.86-.12-1.71.22-2.58.13l-.88-.09.39-.71c.24-.44.55-.85.83-1.27a9.44 9.44 0 0 0 .75-1.31c.22-.45.41-.92.61-1.38s.43-.91.66-1.36l.12-.21h.23c1.48 0 3 0 4.44.1s3-.26 4.44-.31 3-.17 4.44-.16c.74 0 1.48.18 2.22.17s1.48-.06 2.21-.14 1.48-.14 2.22-.16a8.32 8.32 0 0 1 1.11.1 10.28 10.28 0 0 0 1.11 0 15 15 0 0 1 2.22-.09 16.76 16.76 0 0 0 2.22.25 8.68 8.68 0 0 1 2.22 0 3.75 3.75 0 0 0 1.11 0 5.27 5.27 0 0 1 1.11-.14c.74 0 1.48.16 2.22.19a12.68 12.68 0 0 0 2.22-.07h.32l.23.38a6.73 6.73 0 0 1 .68 1.5 7.33 7.33 0 0 0 .72 1.5 13.54 13.54 0 0 1 .8 1.56c.23.46.46.99.65 1.48zm-1.36-.84l-.75-1.17a8.28 8.28 0 0 1-.6-1.13A4.48 4.48 0 0 0 87.57 6a3.8 3.8 0 0 1-.72-1.13l.75.45a17.88 17.88 0 0 0-4.44.19 4 4 0 0 1-1.11-.21 2.6 2.6 0 0 0-1.11 0 5.73 5.73 0 0 1-2.22-.08 12.79 12.79 0 0 0-2.22.18 15 15 0 0 1-2.22-.14 8.23 8.23 0 0 0-1.11 0 10.4 10.4 0 0 1-1.11.1c-.74 0-1.48-.06-2.22-.13s-1.47-.09-2.21-.08-1.48.22-2.22.28a41.1 41.1 0 0 1-4.44 0c-1.48 0-3-.49-4.44-.36s-3 .29-4.44.31l.73-.45a11.3 11.3 0 0 1-.69 1.34c-.28.42-.6.82-.85 1.26a5.22 5.22 0 0 0-.57 1.4 10.36 10.36 0 0 1-.43 1.47l-.9-1.46c.83-.17 1.69.54 2.52.33.42-.06.83-.2 1.24-.28a4.3 4.3 0 0 1 1.24-.08c.84.05 1.68.12 2.52.15H60.67a5.16 5.16 0 0 1 1.33.12c.94.29 1.63-.14 2.5 0 .43 0 .88.11 1.32.15s.86 0 1.29.07c.85 0 1.71.07 2.54 0h2.51c.85 0 1.71.06 2.55.06s1.54-.17 2.39-.15 1.7 0 2.59.1 1.76.08 2.61.1 1.54-.12 2.39-.1c.43 0 .93.08 1.33.07h1.21c.77-.02 1.59-.01 2.4-.02z" fill="#d5daea"/><path fill="#eaecf0" d="M20.58 35.28h58.44v58.71H20.58z"/><path d="M79.58 94.55H68.46l-3.62.11c-2.45 0-5-.18-7.44-.09l-7.3.19c-2.44.06-4.87.15-7.33.18s-5-.17-7.43-.14-4.9.24-7.37.16l-7.39-.16a.75.75 0 0 1-.78-.8c.11-2.45.05-4.89.08-7.34a64.19 64.19 0 0 1-.05-7.34 16.68 16.68 0 0 0 0-3.67c-.08-1.22 0-2.44 0-3.67l.08-7.33v-7.34s.31-4.89.28-7.34c-.47-4.89.26-9.78.08-14.68a.3.3 0 0 1 .29-.32c4.87-.12 9.74-.05 14.61-.05 2.43 0 4.87.11 7.3.05l7.31-.24c2.43 0 4.87-.15 7.3-.16s4.87-.1 7.31 0 4.87.15 7.3.06l7.31-.21a.83.83 0 0 1 .85.8v.06c.12 2.48-.21 4.94 0 7.42a73 73 0 0 1-.06 7.4c-.22 2.43-.08 4.92-.09 7.4 0 1.22-.14 2.42-.14 3.65s.18 2.54.16 3.77c0 2.46-.19 4.85-.2 7.31s.14 5 0 7.43c0 1.21-.07 2.41-.08 3.64l.09 3.78v3.76s.07 2.49.05 3.71zm-1.13-1.13c0-2.41-.06-4.87 0-7.24l.06-3.58c0-1.22-.08-2.48-.16-3.74-.14-2.5.06-4.79 0-7.24s-.25-5-.28-7.37c0-1.21.22-2.32.23-3.53s-.15-2.47-.15-3.68.08-2.39.14-3.58a34.27 34.27 0 0 0-.08-3.65 65.11 65.11 0 0 1 0-7.26c.16-2.41-.11-4.85 0-7.27l.82.82a142.4 142.4 0 0 0-14.61 0c-2.44.16-4.87.1-7.31.11s-4.87-.07-7.3-.11-4.87-.25-7.31-.33-4.87.1-7.3.17-4.87.14-7.31.14-4.87 0-7.3-.16l.65-.66a52.9 52.9 0 0 0 .21 7.34c.11 1.22.15 2.45.16 3.67s-.34 2.45-.36 3.67a28.26 28.26 0 0 0 .23 3.67c.08.61.1 1.22.14 1.83v1.86c-.05 2.44-.14 4.89-.15 7.34v7.33c0 1.23 0 2.45-.08 3.67a15.56 15.56 0 0 0-.08 3.67 25 25 0 0 1 0 3.67c0 1.22-.14 2.45-.16 3.67 0 2.45-.09 4.89-.06 7.34l-.5-.5h7.25l7.27.05c2.41 0 4.79-.19 7.19-.2l7.27.1 7.3.12c2.44 0 4.75-.12 7.15-.12l3.68.09h3.58c2.36-.11 4.78-.1 7.17-.11z" fill="#eaecf0"/><path fill="#eaecf0" d="M7.18 35.28h58.44v58.71H7.18z"/><path d="M66.18 94.55H55.06l-3.62.11c-2.45 0-5-.18-7.45-.09l-7.29.19c-2.44.06-4.88.15-7.34.18s-5-.17-7.43-.14-4.89.24-7.36.16l-7.39-.16h-.82v-.76c.1-2.45 0-4.89.08-7.34a64.2 64.2 0 0 1-.06-7.34 16.09 16.09 0 0 0 0-3.67c-.08-1.22 0-2.44 0-3.67l.08-7.33v-7.34s.31-4.89.27-7.34c-.46-4.89.27-9.78.08-14.68V35h.34c4.87-.12 9.73-.05 14.6-.05 2.44 0 4.87.11 7.31.05l7.3-.24c2.44 0 4.87-.15 7.31-.16s4.87-.1 7.3 0 4.87.15 7.31.06l7.3-.21h.82v.88c.13 2.48-.2 4.94 0 7.42s.15 5-.06 7.4-.08 4.92-.09 7.4c0 1.22-.14 2.42-.14 3.65s.18 2.54.16 3.77c0 2.46-.2 4.85-.21 7.31s.15 5 0 7.43c0 1.21-.07 2.41-.09 3.64l.1 3.78c0 1.28.05 2.52.05 3.76s.07 2.44.06 3.66zm-1.13-1.13c0-2.41-.06-4.87 0-7.24V82.6c0-1.22-.08-2.48-.15-3.74-.14-2.5.06-4.79 0-7.24s-.26-5-.29-7.37c0-1.21.23-2.32.24-3.53s-.15-2.47-.15-3.68.08-2.39.14-3.58a34.27 34.27 0 0 0-.08-3.65 67.62 67.62 0 0 1 0-7.26c.17-2.41-.1-4.85 0-7.27l.81.82a142.4 142.4 0 0 0-14.61 0c-2.43.16-4.87.1-7.3.11s-4.87-.07-7.31-.11-4.87-.25-7.3-.33-4.87.1-7.31.17-4.87.14-7.3.14-4.87 0-7.3-.16l.65-.66A50 50 0 0 0 8 42.62c.11 1.22.15 2.45.15 3.67s-.29 2.45-.31 3.71a26.6 26.6 0 0 0 .23 3.67c.07.61.09 1.22.14 1.83v1.8c-.05 2.44-.14 4.89-.15 7.34L8 72c0 1.23 0 2.45-.08 3.67a16.11 16.11 0 0 0-.07 3.67A26.46 26.46 0 0 1 7.9 83c0 1.22-.14 2.45-.16 3.67 0 2.45-.1 4.89-.07 7.34l-.49-.5h7.25l7.26.05c2.42 0 4.79-.19 7.2-.2l7.26.1 7.3.12c2.45 0 4.76-.12 7.16-.12l3.67.09h3.59c2.37-.13 4.79-.12 7.18-.13z" fill="#eaecf0"/><path fill="#eaecf0" d="M79.02 50.83L66.4 52.59 20.58 79.58V59.67l45.84-23.91 12.6.06v15.01"/><path d="M79.62 51.36l-6.55 1-6.58.88.25-.08L63.93 55C63 55.53 62 56.06 61 56.59c-2 1-3.9 2.11-5.77 3.31L44 66.89c-1.87 1.19-3.82 2.24-5.77 3.3s-3.86 2.18-5.71 3.4-3.81 2.33-5.75 3.41L21 80.26l-1.34.74.14-1.41c.08-.83.06-1.66.07-2.48v-1.25l-.12-1.24a6.53 6.53 0 0 1 0-1.25 8.82 8.82 0 0 0 .18-1.24c0-.42-.17-.83-.15-1.25v-1.24c0-1.66.11-3.32.09-5v-2.49a16.13 16.13 0 0 0 .23-2.49v-.23l.23-.13c.94-.53 1.82-1.18 2.8-1.63s2-.9 2.93-1.36c2-.86 3.86-1.91 5.75-3 3.79-2.06 7.64-4 11.49-5.92 3.76-2.12 7.45-4.36 11.26-6.37.94-.52 1.89-1 2.86-1.5s2-.87 2.93-1.36c1.92-1 3.77-2.1 5.65-3.16l.15-.09h.22c1 0 2.1-.11 3.14-.08s2.1.14 3.15.11l3.15-.06h1.58c.52 0 1 0 1.57.1l.94.11-.14.7c-.06.32-.13.64-.16 1s0 .65 0 1a4.49 4.49 0 0 1 0 1c0 .32-.1.63-.11 1a3.85 3.85 0 0 0 .13 1 3.5 3.5 0 0 1 0 1c0 .32-.07.63-.11.94s0 .63-.06 1a5.26 5.26 0 0 0 0 1l.06 1c0 .65-.11 1.24-.14 1.87l.15 2c.1.45.13 1.13.1 1.76zm-1.21-1v-1.82c0-.58.08-1.14.09-1.74s-.24-1.33-.21-1.92a17.11 17.11 0 0 0 0-1.77 17.45 17.45 0 0 0-.25-1.87 2.16 2.16 0 0 1 0-.88 2.16 2.16 0 0 0 .19-.87c0-.3-.12-.62-.14-.92a2.66 2.66 0 0 1 .07-.89 3.83 3.83 0 0 0 0-1.81l.84.84c-.52.05-1.05.06-1.57.07h-1.58l-3.14-.14c-1 0-2.1 0-3.15.06s-2.1-.06-3.15-.08l.35-.08c-1.94.94-3.91 1.82-5.78 2.89-.94.53-1.83 1.15-2.75 1.71s-1.88 1-2.84 1.54c-1.9 1-3.84 2-5.78 2.89s-4 1.68-5.89 2.68c-3.72 2.04-7.44 4.26-11.31 6.15a32.89 32.89 0 0 0-5.76 2.94c-.9.6-1.79 1.21-2.74 1.73a17.56 17.56 0 0 1-3 1.19l.36-.59a11.24 11.24 0 0 0 .35 2.49 20.7 20.7 0 0 1-.06 2.49c-.12 1.66-.05 3.32-.11 5v1.24c0 .42-.2.83-.2 1.25a8.69 8.69 0 0 0 .13 1.24 5.81 5.81 0 0 1 0 1.25c0 .41-.08.83-.13 1.24s0 .83-.05 1.25c0 .82-.07 1.65 0 2.48l-.76-.43c3.82-2.25 7.61-4.55 11.46-6.74s7.49-4.75 11.35-6.93l11.54-6.6c1.95-1.07 3.82-2.25 5.68-3.46s3.8-2.28 5.74-3.36L66.2 52h.12l6-.91z" fill="#eaecf0"/><path d="M0 93.33c10 0 20-.08 30 .23l3.75.09c1.25.07 2.5.17 3.75.16l7.5.12c2.5 0 5 .12 7.5.21s5 .13 7.49.19h37.5l7.5.2c5 .08 10 0 15 0v1.6h-15c-2.5 0-5-.09-7.5-.18s-5-.09-7.5-.11l-30-.23h-7.5c-2.5 0-5 0-7.5-.09l-7.5-.31c-1.25-.09-2.5 0-3.75 0l-3.74-.1c-2.5-.08-5-.17-7.5-.2s-5 .13-7.5.11l-15-.09z" fill="#d5daea"/><path d="M88.58 61a14.47 14.47 0 0 1-2.17-1.81 7.79 7.79 0 0 1-.89-1.1c-.29-.37-.61-.71-.92-1.08a12.29 12.29 0 0 1-.86-1.15 10.19 10.19 0 0 1-.64-1.28 12.81 12.81 0 0 1-.77-2.77l-.16-.94.89-.14c2.25-.35 4.48-.8 6.74-1.11 1.13-.19 2.27-.29 3.39-.48s2.24-.44 3.37-.6 2.23-.45 3.35-.65 2.24-.39 3.36-.61c.56-.11 1.09-.38 1.64-.5l1.67-.38 3.34-.74.67-.15.19.73a10.26 10.26 0 0 1 .2 4.2 19 19 0 0 1-1 4.07 15.7 15.7 0 0 1-2.26 3.49 14.93 14.93 0 0 1-3 2.95l-.88-1.31a13.06 13.06 0 0 0 2.73-2.57 14.79 14.79 0 0 0 1.77-3.27 12.3 12.3 0 0 0 1-3.57c0-.31.06-.62.08-.93s0-.63 0-.94v-1c0-.32-.07-.63-.11-.94l.81.54c-1.11.24-2.22.53-3.32.81-.55.15-1.11.25-1.67.38s-1.16 0-1.72.12c-1.11.24-2.19.67-3.29.94a6.92 6.92 0 0 1-1.69.26 16 16 0 0 0-1.68.32c-1.11.27-2.24.44-3.36.61a13.45 13.45 0 0 0-1.65.46 10.85 10.85 0 0 1-1.7.23 12 12 0 0 0-1.7.19 10.7 10.7 0 0 1-1.7.23 16.76 16.76 0 0 0-3.38.53l.4-.6a12.41 12.41 0 0 0 .89 2.41c.18.39.37.77.58 1.14s.38.76.59 1.13a7.57 7.57 0 0 0 .73 1c.31.3.64.57.94.87a13 13 0 0 0 2 1.56z" fill="#eaecf0"/><path d="M111.82 59.48a7 7 0 0 1 .16 2c-.06.52-.14 1-.22 1.43s-.23.91-.34 1.37-.38.87-.55 1.31A12.61 12.61 0 0 1 108 70.4a14.48 14.48 0 0 1-4.8 3.07 13.75 13.75 0 0 1-11-.31A12.74 12.74 0 0 1 87.61 70c-.3-.35-.6-.71-.91-1l-.85-1.1c-.25-.39-.5-.77-.72-1.19s-.39-.83-.57-1.26-.31-.87-.45-1.31-.23-.89-.32-1.34a12.61 12.61 0 0 0-.28-1.36c-.06-.46-.14-.92-.17-1.39v-.58h.65q3.47-.09 7-.13c1.17 0 2.35-.08 3.5 0s2.29.12 3.46.12c2.33 0 4.7 0 6.91.13s4.61-.1 6.96-.11zm-1.11 1.12l-6.77.16a51.89 51.89 0 0 1-6.68.12h-3.32c-1.1 0-2.19-.11-3.3-.12l-6.7.21.89-.9a5.91 5.91 0 0 1 0 1.26 4.88 4.88 0 0 0 .1 1.27c.11.41.23.82.37 1.21s.36.77.54 1.15.42.72.61 1.09a11.58 11.58 0 0 1 .65 1.06c.21.36.44.71.67 1.06s.56.62.83.94a15.61 15.61 0 0 0 4.14 2.81c.4.12.8.23 1.21.32a7.09 7.09 0 0 1 1.21.28c.41.06.82.18 1.23.28l1.21.2a16.17 16.17 0 0 0 5.05-.73 11.85 11.85 0 0 0 4.16-3 16.75 16.75 0 0 0 2.86-4.27c.26-.82.44-1.65.62-2.47l.15-1.24a1.43 1.43 0 0 1 .27-.69z" fill="#d5daea"/><path fill="#f4f5f7" d="M65.61 53.51L7.17 86.91V67l58.44-29.57v16.08"/><path d="M66.3 53.91c-2.46 1.39-4.9 2.81-7.39 4.18l-3.71 2.07-3.58 2.18c-2.43 1.42-5.08 2.65-7.45 4.11L37 70.78c-2.41 1.44-4.81 2.91-7.24 4.33s-5 2.66-7.45 4.09-4.77 3-7.27 4.33l-7.48 4.06-1.3.71.14-1.39c.08-.83 0-1.66.07-2.49v-1.24l-.12-1.25a5.71 5.71 0 0 1 0-1.24 8.93 8.93 0 0 0 .17-1.25c0-.41-.16-.83-.14-1.24v-1.25c0-1.66.12-3.32.1-5v-2.49A17.49 17.49 0 0 0 6.77 67v-.21l.23-.16A52.63 52.63 0 0 1 14.33 63c2.48-1.16 4.82-2.57 7.28-3.76s4.86-2.47 7.34-3.62 4.8-2.61 7.19-3.92l3.59-2 3.62-1.91c1.2-.65 2.46-1.19 3.71-1.74a35.69 35.69 0 0 0 3.65-1.85l3.58-2a33.78 33.78 0 0 1 3.64-1.87c2.51-1.08 4.77-2.66 7.32-3.67l1.41-.57-.24 1.29c-.06.34-.13.68-.16 1s0 .69 0 1a7.08 7.08 0 0 1 0 1c0 .34-.1.67-.11 1a4.31 4.31 0 0 0 .13 1 3.56 3.56 0 0 1 0 1c0 .34-.07.67-.11 1s0 .68-.06 1a5.08 5.08 0 0 0 0 1l.06 1c0 .68-.1 1.33-.12 2l.18 2.14c.06 1 .1 1.72.07 2.39zm-1.38-.8v-2c0-.63.1-1.26.12-1.9s-.25-1.41-.22-2a17.59 17.59 0 0 0 .08-1.93 19.36 19.36 0 0 0-.25-2 2.86 2.86 0 0 1 0-1 2.6 2.6 0 0 0 .19-.95c0-.32-.12-.66-.14-1a3.93 3.93 0 0 1 .07-1 4.33 4.33 0 0 0 0-2l1.22.75c-2.33 1.43-5 2.27-7.33 3.64-.6.32-1.19.67-1.8 1l-1.86.94-3.71 1.73a37.86 37.86 0 0 0-3.61 1.93c-1.16.72-2.33 1.44-3.55 2l-3.66 1.85-3.7 1.83c-1.23.6-2.5 1.11-3.77 1.62a29 29 0 0 0-3.66 1.82c-1.19.69-2.37 1.37-3.57 2s-2.4 1.3-3.61 1.93-2.43 1.25-3.7 1.76a30.45 30.45 0 0 0-3.69 1.76c-1.21.65-2.31 1.49-3.5 2.16a12.53 12.53 0 0 1-1.83.92c-.65.23-1.33.4-2 .65l.41-.62a11.21 11.21 0 0 0 .34 2.48 18.82 18.82 0 0 1 0 2.49C8 73.63 8.09 75.29 8 77v1.2c0 .41-.2.83-.2 1.24a8.81 8.81 0 0 0 .12 1.25 5.15 5.15 0 0 1 0 1.24c0 .42-.09.83-.13 1.25s0 .83 0 1.24c0 .83-.07 1.66 0 2.49l-.74-.43 7.26-4.18 7.3-4.13c2.41-1.41 4.73-2.92 7.13-4.32L36 69.77l7.36-4.07c2.47-1.36 4.73-2.88 7.14-4.26l3.7-2 3.59-2.11c2.31-1.44 4.74-2.82 7.13-4.22z" fill="#f4f5f7"/><path d="M60.46 82.67l-7 .17-7.1.16H33.8l-1.8-.16h-.76v-.69-9.38q.16-4.68.23-9.38v-.42H32c2.32 0 4.64 0 7-.07l7-.09 13.94-.22h.78v.81c.05 1.61 0 3.23 0 4.83s-.12 3.2-.14 4.8zm-1.13-1.13l-.28-9.17c0-1.5-.08-3 0-4.5s.1-3 .08-4.53l.77.78-13.9.03-14 .05.85-.86q.12 4.69.18 9.38c0 3.13-.27 6.26-.34 9.38l-.69-.69 1.7-.06 1.72.06 3.43.1c1.15 0 2.3.08 3.45.08s2.25-.08 3.38-.11c2.24-.07 4.53 0 6.8 0z" fill="#fff"/><path fill="#d5daea" d="M20.04 70.7H2.53V56.41l5-8.22h7.15l5.36 8.22V70.7"/><path d="M20.6 71.26c-1.5 0-3 .07-4.51.07a13.91 13.91 0 0 0-2.25 0l-2.2.19c-3 .18-6.11 0-9.11 0h-.87v-.85c0-1.2 0-2.39.07-3.58l.12-3.57C1.9 62.37 2 61.17 2 60V56.28l.07-.11 1.3-2 1.21-2.08c.84-1.37 1.72-2.71 2.55-4.08l.12-.21H9.28l1.79-.14 3.57-.08H15l.21.31 2.79 4c.47.67.93 1.34 1.39 2s.87 1.39 1.3 2.08l.13.21v.21l-.07 1.85v1.86c0 1.24 0 2.5-.08 3.7s-.09 2.43-.08 3.68zm-1.11-1.11l-.14-3.49c-.05-1.15-.05-2.29-.19-3.47a25.7 25.7 0 0 1-.06-3.39c0-1.12.08-2.25.08-3.39l.14.47c-.43-.7-.89-1.37-1.29-2.09s-.83-1.41-1.26-2.11-.92-1.35-1.37-2l-1.4-2 .68.37c-1.19 0-2.38.07-3.57.08-.6 0-1.19-.12-1.79-.18a17.82 17.82 0 0 0-1.79 0l.63-.35c-.39.7-.74 1.42-1.11 2.14s-.76 1.42-1.16 2.11-.92 1.32-1.36 2L3.3 56.88l.14-.47v3.57s.2 2.39.12 3.58-.25 2.38-.24 3.57a33.21 33.21 0 0 1-.21 3.58l-.53-.54c.71 0 1.43.06 2.14 0s1.43 0 2.13 0c1.42 0 2.8-.12 4.22-.1a38.31 38.31 0 0 0 4.26.09c1.34-.04 2.76-.02 4.16-.01z" fill="#d5daea"/><path d="M10 48.19c-.08-3.72-.29-7.44-.08-11.15l.05-1.4A5.46 5.46 0 0 1 10 35v-.7a20.2 20.2 0 0 1 .16-2.87 8.84 8.84 0 0 1 .86-2.8 11.89 11.89 0 0 1 1.54-2.47 8.49 8.49 0 0 1 4.76-3.31 6.93 6.93 0 0 1 3 0 6.85 6.85 0 0 1 2.77 1.36 7 7 0 0 1 1.92 2.36 13.08 13.08 0 0 1 1 2.79 26.86 26.86 0 0 1 .91 5.64h-1.6a21.43 21.43 0 0 0-.76-5.27c-.13-.41-.26-.83-.4-1.23a7.75 7.75 0 0 0-.47-1.19 5.57 5.57 0 0 0-1.52-2 5.16 5.16 0 0 0-4.52-1.14 7 7 0 0 0-4 2.74 7.8 7.8 0 0 0-1.11 2.26c-.14.4-.24.81-.37 1.21s-.22.82-.27 1.25-.17.84-.23 1.28-.11.91-.15 1.37a5.39 5.39 0 0 0 0 .7 5.36 5.36 0 0 1 .06.69L11.42 37c-.06.93-.14 1.85-.13 2.78s.21 1.86.19 2.79c0 1.86.1 3.72.07 5.58z" fill="#d5daea"/><path d="M6.94 56.65a12.3 12.3 0 0 1 4.1-.38 3.47 3.47 0 0 1 2.15.75 1.22 1.22 0 0 1 .18 1.5 2.26 2.26 0 0 1-1 .76 15.18 15.18 0 0 1-2 .62c-.31.09-.62.18-.91.29a2 2 0 0 0-.6.32c0 .08-.06.18.21.25a5.59 5.59 0 0 0 .91.12 2.88 2.88 0 0 1 2.05.72l.2.21-.19.21c-1.3 1.37-2.49 2.91-3.9 4.27a6.67 6.67 0 0 1-1.14.92 2 2 0 0 1-1.59.29 2 2 0 0 1-1.1-1.2 1.72 1.72 0 0 1-.15-.86 1.34 1.34 0 0 1 .43-.82A3.15 3.15 0 0 1 6.06 64a9.61 9.61 0 0 1 1.49-.18 15 15 0 0 1 2.93.16 49.81 49.81 0 0 1 5.75 1l-.24.77a39.81 39.81 0 0 0-5.59-1 15.84 15.84 0 0 0-2.83-.19 4.55 4.55 0 0 0-2.49.59c-.25.22-.27.49-.12.88a1.33 1.33 0 0 0 .67.82 1.4 1.4 0 0 0 1-.23 6.7 6.7 0 0 0 1.07-.81 48.54 48.54 0 0 0 3.73-4.35v.69a2.68 2.68 0 0 0-1.51-.5 6.62 6.62 0 0 1-1.06-.19 1.13 1.13 0 0 1-.6-.43.91.91 0 0 1-.08-.82 1.54 1.54 0 0 1 1-.76 10.09 10.09 0 0 1 1-.3 14.44 14.44 0 0 0 1.86-.57 1.35 1.35 0 0 0 .67-.48.4.4 0 0 0-.12-.52 3.22 3.22 0 0 0-1.65-.5 12.14 12.14 0 0 0-3.8.33z" fill="#fff"/><circle cx="60" cy="50" r="25" fill="#4ec0be"/><path d="M86.57 50a25.39 25.39 0 0 1-2.09 10.14c-1.61 3-3.07 6.24-5.46 8.88a23.81 23.81 0 0 1-8.73 5.81A27.74 27.74 0 0 1 60 76.7l-2.61-.16c-.87-.12-1.73-.27-2.59-.41s-1.67-.48-2.51-.71-1.62-.64-2.43-1-1.54-.79-2.31-1.18-1.46-.93-2.18-1.39-1.35-1.08-2-1.63l-1.83-1.8c-.54-.67-1.1-1.31-1.68-1.94l-1.53-2c-.46-.72-.9-1.46-1.3-2.2S36.29 60.74 36 60s-.55-1.61-.78-2.43-.4-1.65-.56-2.48-.27-1.67-.39-2.51L34.06 50a25.46 25.46 0 0 1 2.06-9.89c.33-.78.74-1.52 1.09-2.29.18-.39.4-.74.6-1.12l.56-1.15c.41-.75.9-1.46 1.38-2.17l1.69-1.94a25.66 25.66 0 0 1 8.45-5.86A26.4 26.4 0 0 1 60 23.37l2.6.21c.86.13 1.71.31 2.56.46s1.67.47 2.5.71l2.45.86a24.68 24.68 0 0 1 8.6 5.68l1.64 2 1.46 2.13c.45.73.92 1.45 1.34 2.19s.78 1.54 1.14 2.32A26.1 26.1 0 0 1 86.57 50zm-3.14 0a24.19 24.19 0 0 0-1.87-8.93c-.31-.7-.66-1.37-1-2.06s-.81-1.29-1.21-1.94-1-1.16-1.47-1.75l-1.63-1.57c-.57-.49-1.14-1-1.68-1.5l-1.79-1.39-1.91-1.21c-.67-.34-1.33-.72-2-1A22.06 22.06 0 0 0 60 26.68h-2.3c-.76 0-1.53.14-2.3.21s-1.51.34-2.26.52-1.44.59-2.14.82a23.72 23.72 0 0 0-7.41 5.34l-1.5 1.72A16.27 16.27 0 0 1 40.55 37a13.17 13.17 0 0 0-1.38 1.86c-.31.71-.63 1.41-.91 2.12A27.77 27.77 0 0 0 37 50v2.27a19.23 19.23 0 0 0 .26 2.27c.17.74.38 1.47.58 2.2s.55 1.41.81 2.12.64 1.38 1 2.06.79 1.3 1.13 2 .86 1.26 1.3 1.88l.75.86.81.81 1.82 1.38c.63.42 1.24.86 1.83 1.33s1.24.86 1.86 1.3 1.31.79 2 1.15a19.89 19.89 0 0 0 2.12.91c.75.16 1.49.38 2.24.54s1.5.35 2.27.5l2.32.3a18.17 18.17 0 0 0 9.15-1.76 25.27 25.27 0 0 0 7.53-5.42l1.51-1.7 1.46-1.82c.41-.65.88-1.28 1.25-2s.59-1.44.86-2.17A25 25 0 0 0 83.43 50z" fill="#4ec0be"/><path d="M50.66 50.81c.57.53 1.12 1.1 1.66 1.66s1.1 1.12 1.63 1.7a43.28 43.28 0 0 1 3 3.61h-2.67a34.17 34.17 0 0 0 4-4.11 50.69 50.69 0 0 1 3.78-4.36l2.08-2a18.54 18.54 0 0 0 2-2.11A40.37 40.37 0 0 1 70 40.85a1.8 1.8 0 0 1 2.69 2.39l-.05.06a42.4 42.4 0 0 1-3.77 4.36c-1.44 1.29-2.67 2.77-4 4.16s-2.71 2.73-4.12 4a43.43 43.43 0 0 0-3.92 4.22 1.51 1.51 0 0 1-2.13.21l-.11-.1-.12-.12c-.55-.56-1.09-1.13-1.61-1.72s-1-1.23-1.46-1.85-1-1.17-1.6-1.72a18.92 18.92 0 0 0-1.8-1.52 1.8 1.8 0 0 1 2.18-2.86l.13.11z" fill="#fff"/></svg>